<svg xmlns="http://www.w3.org/2000/svg" width="1280" height="620" viewBox="0 0 1280 620" font-family="Calibri, Arial, sans-serif"><rect width="1280" height="620" fill="#1F2933"/><defs><marker id="ah-1F2933" viewBox="0 0 10 10" refX="9" refY="5" markerWidth="6" markerHeight="6" orient="auto-start-reverse"><path d="M 0 1 L 10 5 L 0 9 z" fill="#1F2933"/></marker><marker id="ah-52606D" viewBox="0 0 10 10" refX="9" refY="5" markerWidth="6" markerHeight="6" orient="auto-start-reverse"><path d="M 0 1 L 10 5 L 0 9 z" fill="#52606D"/></marker><marker id="ah-9AA5B1" viewBox="0 0 10 10" refX="9" refY="5" markerWidth="6" markerHeight="6" orient="auto-start-reverse"><path d="M 0 1 L 10 5 L 0 9 z" fill="#9AA5B1"/></marker><marker id="ah-F5F7FA" viewBox="0 0 10 10" refX="9" refY="5" markerWidth="6" markerHeight="6" orient="auto-start-reverse"><path d="M 0 1 L 10 5 L 0 9 z" fill="#F5F7FA"/></marker><marker id="ah-2A3440" viewBox="0 0 10 10" refX="9" refY="5" markerWidth="6" markerHeight="6" orient="auto-start-reverse"><path d="M 0 1 L 10 5 L 0 9 z" fill="#2A3440"/></marker><marker id="ah-F0B429" viewBox="0 0 10 10" refX="9" refY="5" markerWidth="6" markerHeight="6" orient="auto-start-reverse"><path d="M 0 1 L 10 5 L 0 9 z" fill="#F0B429"/></marker><marker id="ah-2BB3A3" viewBox="0 0 10 10" refX="9" refY="5" markerWidth="6" markerHeight="6" orient="auto-start-reverse"><path d="M 0 1 L 10 5 L 0 9 z" fill="#2BB3A3"/></marker><marker id="ah-E5534B" viewBox="0 0 10 10" refX="9" refY="5" markerWidth="6" markerHeight="6" orient="auto-start-reverse"><path d="M 0 1 L 10 5 L 0 9 z" fill="#E5534B"/></marker><marker id="ah-57A773" viewBox="0 0 10 10" refX="9" refY="5" markerWidth="6" markerHeight="6" orient="auto-start-reverse"><path d="M 0 1 L 10 5 L 0 9 z" fill="#57A773"/></marker><marker id="ah-6FE3D2" viewBox="0 0 10 10" refX="9" refY="5" markerWidth="6" markerHeight="6" orient="auto-start-reverse"><path d="M 0 1 L 10 5 L 0 9 z" fill="#6FE3D2"/></marker><marker id="ah-C7A4FF" viewBox="0 0 10 10" refX="9" refY="5" markerWidth="6" markerHeight="6" orient="auto-start-reverse"><path d="M 0 1 L 10 5 L 0 9 z" fill="#C7A4FF"/></marker><marker id="ah-7FD8CE" viewBox="0 0 10 10" refX="9" refY="5" markerWidth="6" markerHeight="6" orient="auto-start-reverse"><path d="M 0 1 L 10 5 L 0 9 z" fill="#7FD8CE"/></marker></defs><text x="56" y="62" font-size="30" fill="#F5F7FA" text-anchor="start" font-weight="bold" font-family="Calibri, Arial, sans-serif" >Everything is layered on an untouched parity core</text><text x="56" y="92" font-size="16" fill="#9AA5B1" text-anchor="start" font-weight="normal" font-family="Calibri, Arial, sans-serif" >Each ring only drives the one inside it through public seams. Absent ⇒ byte-identical.</text><circle cx="400" cy="330" r="215" fill="#243040" stroke="#9AA5B1" stroke-width="1.6" opacity="0.95"/><rect x="338" y="104" width="124" height="21" rx="10" fill="#243040"/><text x="400" y="119" font-size="11.5" fill="#9AA5B1" text-anchor="middle" font-weight="bold" font-family="Calibri, Arial, sans-serif" >Sim.Evac</text><circle cx="400" cy="330" r="172" fill="#26333f" stroke="#9AA5B1" stroke-width="1.6" opacity="0.95"/><rect x="338" y="147" width="124" height="21" rx="10" fill="#26333f"/><text x="400" y="162" font-size="11.5" fill="#9AA5B1" text-anchor="middle" font-weight="bold" font-family="Calibri, Arial, sans-serif" >LiveCity</text><circle cx="400" cy="330" r="130" fill="#2b3a44" stroke="#2BB3A3" stroke-width="1.6" opacity="0.95"/><rect x="338" y="189" width="124" height="21" rx="10" fill="#2b3a44"/><text x="400" y="204" font-size="11.5" fill="#2BB3A3" text-anchor="middle" font-weight="bold" font-family="Calibri, Arial, sans-serif" >Sim.Pedestrians</text><circle cx="400" cy="330" r="88" fill="#31424a" stroke="#F0B429" stroke-width="1.6" opacity="0.95"/><rect x="338" y="231" width="124" height="21" rx="10" fill="#31424a"/><text x="400" y="246" font-size="11.5" fill="#F0B429" text-anchor="middle" font-weight="bold" font-family="Calibri, Arial, sans-serif" >External agents</text><circle cx="400" cy="330" r="52" fill="#F5F7FA"/><text x="400" y="326" font-size="19" fill="#1F2933" text-anchor="middle" font-weight="bold" font-family="Calibri, Arial, sans-serif" >SUMO</text><text x="400" y="345" font-size="12" fill="#52606D" text-anchor="middle" font-weight="normal" font-family="Calibri, Arial, sans-serif" >parity core</text><circle cx="700" cy="227" r="7" fill="#F0B429"/><text x="720" y="232" font-size="17" fill="#F5F7FA" text-anchor="start" font-weight="bold" font-family="Calibri, Arial, sans-serif" >External agents seam</text><text x="720" y="253" font-size="14" fill="#9AA5B1" text-anchor="start" font-weight="normal" font-family="Calibri, Arial, sans-serif" >Cars react to things SUMO never controlled</text><circle cx="700" cy="289" r="7" fill="#2BB3A3"/><text x="720" y="294" font-size="17" fill="#F5F7FA" text-anchor="start" font-weight="bold" font-family="Calibri, Arial, sans-serif" >Sim.Pedestrians</text><text x="720" y="315" font-size="14" fill="#9AA5B1" text-anchor="start" font-weight="normal" font-family="Calibri, Arial, sans-serif" >Navmesh, O/D demand, two-level LOD, weave</text><circle cx="700" cy="351" r="7" fill="#9AA5B1"/><text x="720" y="356" font-size="17" fill="#F5F7FA" text-anchor="start" font-weight="bold" font-family="Calibri, Arial, sans-serif" >LiveCity</text><text x="720" y="377" font-size="14" fill="#9AA5B1" text-anchor="start" font-weight="normal" font-family="Calibri, Arial, sans-serif" >One net, cars and crowd coupled, realism zones</text><circle cx="700" cy="413" r="7" fill="#9AA5B1"/><text x="720" y="418" font-size="17" fill="#F5F7FA" text-anchor="start" font-weight="bold" font-family="Calibri, Arial, sans-serif" >Sim.Evac</text><text x="720" y="439" font-size="14" fill="#9AA5B1" text-anchor="start" font-weight="normal" font-family="Calibri, Arial, sans-serif" >A whole behavioural model, core unmodified</text><rect x="696" y="484" width="520" height="62" rx="8" fill="#243040" stroke="#57A773" stroke-width="1.2" opacity="1.0"/><text x="716" y="510" font-size="15" fill="#57A773" text-anchor="start" font-weight="bold" font-family="Calibri, Arial, sans-serif" >661 goldens byte-identical · par == single</text><text x="716" y="530" font-size="13" fill="#9AA5B1" text-anchor="start" font-weight="normal" font-family="Calibri, Arial, sans-serif" >The core does not know the outer rings exist.</text></svg>